<?xml version="1.0" standalone="no"?><!-- Generator: Adobe Fireworks CS6, Export SVG Extension by Aaron Beall (http://fireworks.abeall.com) . Version: 0.6.1  --><!DOCTYPE svg PUBLIC "-//W3C//DTD SVG 1.1//EN" "http://www.w3.org/Graphics/SVG/1.1/DTD/svg11.dtd"><svg id="Untitled-Page%201" viewBox="0 0 30 30" style="background-color:#ffffff00" version="1.1"	xmlns="http://www.w3.org/2000/svg" xmlns:xlink="http://www.w3.org/1999/xlink" xml:space="preserve"	x="0px" y="0px" width="30px" height="30px">	<g id="Layer%201">		<g>			<path id="Shape%2011" d="M 27.8277 29.9818 L 2.2171 30.0131 C 1.0011 30.0131 0.0147 29.0548 0.0147 27.875 L 0.0147 2.125 C 0.0147 0.9443 1.0011 -0.0131 2.2171 -0.0131 L 27.8277 -0.0443 C 29.0449 -0.0443 30.0313 0.9131 30.0313 2.0938 L 30.0313 27.8438 C 30.0313 29.0235 29.0449 29.9818 27.8277 29.9818 ZM 5 25.0313 L 9.0509 25.0603 L 9.0509 12 L 5 11.971 L 5 25.0313 ZM 6.8293 5.0883 C 5.2899 5.0883 4.2823 6.0946 4.2823 7.4162 C 4.2823 8.7094 5.2592 9.7444 6.7698 9.7444 L 6.7999 9.7444 C 8.3696 9.7444 9.3477 8.7094 9.3477 7.4162 C 9.3177 6.0946 8.3696 5.0883 6.8293 5.0883 ZM 25 17.2732 C 25 13.1333 23.0664 11.267 20.1045 11.267 C 17.7141 11.267 16.6442 12.5745 16.0457 13.4924 L 16.0457 11.9688 L 11.9688 11.9688 C 12.0277 13.232 11.9688 25.0603 11.9688 25.0603 L 16.0457 25.0603 L 16.0457 17.5345 C 16.0457 17.1316 16.0746 16.73 16.1935 16.442 C 16.5199 15.6366 17.2606 14.8034 18.504 14.8034 C 20.1336 14.8034 21 15.9789 21 17.7897 L 21 25 L 25 25 L 25 17.2732 ZM 16.0157 13.539 C 16.0254 13.5234 16.0363 13.5079 16.0457 13.4924 L 16.0457 13.539 L 16.0157 13.539 Z" fill="#1c1c1c"/>		</g>	</g></svg>