<?xml version="1.0" standalone="no"?><!-- Generator: Adobe Fireworks CS6, Export SVG Extension by Aaron Beall (http://fireworks.abeall.com) . Version: 0.6.1  --><!DOCTYPE svg PUBLIC "-//W3C//DTD SVG 1.1//EN" "http://www.w3.org/Graphics/SVG/1.1/DTD/svg11.dtd"><svg id="icon-linkedin.fw-Page%201" viewBox="0 0 30 30" style="background-color:#ffffff00" version="1.1"	xmlns="http://www.w3.org/2000/svg" xmlns:xlink="http://www.w3.org/1999/xlink" xml:space="preserve"	x="0px" y="0px" width="30px" height="30px">	<path id="Shape%2011" d="M 27.7964 30 L 2.2024 30 C 0.9863 30 0 28.9635 0 27.7837 L 0 2.1381 C 0 0.9574 0.9863 0 2.2024 0 L 27.7964 0 C 29.0137 0 30 0.9574 30 2.1381 L 30 27.8619 C 30 29.0417 29.0137 30 27.7964 30 ZM 4.875 25 L 9 25 L 9 11.9844 L 4.875 11.9844 L 4.875 25 ZM 6.8293 5.0883 C 5.2899 5.0883 4.2823 6.0946 4.2823 7.4162 C 4.2823 8.7094 5.2592 9.7444 6.7698 9.7444 L 6.7999 9.7444 C 8.3696 9.7444 9.3477 8.7094 9.3477 7.4162 C 9.3177 6.0946 8.3696 5.0883 6.8293 5.0883 ZM 25 17.2732 C 25 13.1333 22.7333 11.267 19.7714 11.267 C 17.381 11.267 16.5985 12.5745 16 13.4924 L 16 11.9844 L 11.9572 11.9844 C 12.0161 13.2477 11.9844 25 11.9844 25 L 16 25 L 16 17.4742 C 16 17.0714 16.0289 16.73 16.1478 16.442 C 16.4742 15.6366 17.2565 14.8034 18.5 14.8034 C 20.1296 14.8034 20.9844 16.0392 20.9844 17.85 L 20.9844 25 L 25 25 L 25 17.2732 ZM 16.0157 13.539 C 16.0254 13.5234 16.0363 13.5079 16.0457 13.4924 L 16.0457 13.539 L 16.0157 13.539 Z" fill="#007ab8"/></svg>