<?xml version="1.0" standalone="no"?><!-- Generator: Adobe Fireworks CS6, Export SVG Extension by Aaron Beall (http://fireworks.abeall.com) . Version: 0.6.1  --><!DOCTYPE svg PUBLIC "-//W3C//DTD SVG 1.1//EN" "http://www.w3.org/Graphics/SVG/1.1/DTD/svg11.dtd"><svg id="icon-twitter.fw-Page%201" viewBox="0 0 30 26" style="background-color:#ffffff00" version="1.1"	xmlns="http://www.w3.org/2000/svg" xmlns:xlink="http://www.w3.org/1999/xlink" xml:space="preserve"	x="0px" y="0px" width="30px" height="26px">	<path id="Shape%203" d="M 29.9365 3.8326 C 28.8439 4.3154 27.6687 4.6412 26.435 4.7874 C 27.6941 4.0374 28.6604 2.8491 29.1157 1.4323 C 27.9376 2.1275 26.6335 2.6323 25.2445 2.9044 C 24.1327 1.7258 22.5482 0.9893 20.7949 0.9893 C 17.4283 0.9893 14.6987 3.7045 14.6987 7.0535 C 14.6987 7.5287 14.7526 7.9913 14.8566 8.4351 C 9.79 8.1826 5.2977 5.7685 2.2909 2.0994 C 1.7664 2.9947 1.4657 4.0362 1.4657 5.148 C 1.4657 7.2518 2.5418 9.1078 4.1776 10.1956 C 3.1786 10.1636 2.2382 9.8912 1.4165 9.4368 C 1.4159 9.462 1.4159 9.4875 1.4159 9.5135 C 1.4159 12.4511 3.5173 14.9021 6.3064 15.4596 C 5.7948 15.5979 5.2561 15.6723 4.7001 15.6723 C 4.3069 15.6723 3.9252 15.6345 3.5529 15.5633 C 4.329 17.9724 6.5803 19.7258 9.2474 19.7748 C 7.1611 21.4013 4.5328 22.3708 1.6762 22.3708 C 1.1844 22.3708 0.6993 22.3417 0.2222 22.2861 C 2.9206 24.007 6.1247 25.0107 9.5673 25.0107 C 20.7808 25.0107 26.9121 15.7702 26.9121 7.7566 C 26.9121 7.4941 26.9068 7.2319 26.895 6.972 C 28.0858 6.1171 29.1198 5.049 29.9365 3.8326 Z" fill="#00aaf3"/></svg>